<svg width="41" height="40" viewBox="0 0 41 40" fill="none" xmlns="http://www.w3.org/2000/svg">
<g id="workspaces">
<path id="Vector" d="M10.4999 21.6667C6.83325 21.6667 3.83325 24.6667 3.83325 28.3333C3.83325 32 6.83325 35 10.4999 35C14.1666 35 17.1666 32 17.1666 28.3333C17.1666 24.6667 14.1666 21.6667 10.4999 21.6667ZM20.4999 5C16.8333 5 13.8333 8 13.8333 11.6667C13.8333 15.3333 16.8333 18.3333 20.4999 18.3333C24.1666 18.3333 27.1666 15.3333 27.1666 11.6667C27.1666 8 24.1666 5 20.4999 5ZM30.4999 21.6667C26.8333 21.6667 23.8333 24.6667 23.8333 28.3333C23.8333 32 26.8333 35 30.4999 35C34.1666 35 37.1666 32 37.1666 28.3333C37.1666 24.6667 34.1666 21.6667 30.4999 21.6667Z" fill="white"/>
</g>
</svg>
