<svg width="41" height="40" viewBox="0 0 41 40" fill="none" xmlns="http://www.w3.org/2000/svg">
<g id="phone_android">
<path id="Vector" d="M27.1666 1.66675H13.8333C11.0666 1.66675 8.83325 3.90008 8.83325 6.66675V33.3334C8.83325 36.1001 11.0666 38.3334 13.8333 38.3334H27.1666C29.9333 38.3334 32.1666 36.1001 32.1666 33.3334V6.66675C32.1666 3.90008 29.9333 1.66675 27.1666 1.66675ZM22.9999 35.0001H17.9999C17.5333 35.0001 17.1666 34.6334 17.1666 34.1667C17.1666 33.7001 17.5333 33.3334 17.9999 33.3334H22.9999C23.4666 33.3334 23.8333 33.7001 23.8333 34.1667C23.8333 34.6334 23.4666 35.0001 22.9999 35.0001ZM28.8333 30.0001H12.1666V6.66675H28.8333V30.0001Z" fill="white"/>
</g>
</svg>
