<svg width="41" height="40" viewBox="0 0 41 40" fill="none" xmlns="http://www.w3.org/2000/svg">
<g id="person_search">
<g id="Vector">
<path d="M17.523 18.6729C21.2049 18.6729 24.1897 15.6882 24.1897 12.0063C24.1897 8.32437 21.2049 5.3396 17.523 5.3396C13.8411 5.3396 10.8564 8.32437 10.8564 12.0063C10.8564 15.6882 13.8411 18.6729 17.523 18.6729Z" fill="white"/>
<path d="M18.1064 22.0229C13.5564 21.8563 4.1897 24.1229 4.1897 28.6729V30.3396C4.1897 31.2563 4.9397 32.0063 5.85636 32.0063H20.0897C15.973 27.4063 18.0397 22.1896 18.1064 22.0229Z" fill="white"/>
<path d="M33.2397 28.7063C34.023 27.3729 34.4064 25.7563 34.0397 24.0063C33.473 21.2729 31.173 19.0896 28.4064 18.7396C24.023 18.1729 20.323 21.8563 20.9064 26.2396C21.273 29.0063 23.4397 31.3063 26.173 31.8729C27.923 32.2396 29.5397 31.8563 30.873 31.0729L33.973 34.1729C34.623 34.8229 35.673 34.8229 36.323 34.1729C36.973 33.5229 36.973 32.4729 36.323 31.8229L33.2397 28.7063ZM27.523 28.6729C25.6897 28.6729 24.1897 27.1729 24.1897 25.3396C24.1897 23.5063 25.6897 22.0063 27.523 22.0063C29.3564 22.0063 30.8564 23.5063 30.8564 25.3396C30.8564 27.1729 29.3564 28.6729 27.523 28.6729Z" fill="white"/>
</g>
</g>
</svg>
