<svg width="35" height="30" viewBox="0 0 35 30" fill="none" xmlns="http://www.w3.org/2000/svg">
<path d="M7.49992 16.6667C3.83325 16.6667 0.833252 19.6667 0.833252 23.3333C0.833252 27 3.83325 30 7.49992 30C11.1666 30 14.1666 27 14.1666 23.3333C14.1666 19.6667 11.1666 16.6667 7.49992 16.6667ZM17.4999 0C13.8333 0 10.8333 3 10.8333 6.66667C10.8333 10.3333 13.8333 13.3333 17.4999 13.3333C21.1666 13.3333 24.1666 10.3333 24.1666 6.66667C24.1666 3 21.1666 0 17.4999 0ZM27.4999 16.6667C23.8333 16.6667 20.8333 19.6667 20.8333 23.3333C20.8333 27 23.8333 30 27.4999 30C31.1666 30 34.1666 27 34.1666 23.3333C34.1666 19.6667 31.1666 16.6667 27.4999 16.6667Z" fill="white"/>
</svg>
