<svg width="40" height="43" viewBox="0 0 40 43" fill="none" xmlns="http://www.w3.org/2000/svg">
<path d="M37.8365 0H2.82662C2.25281 0 1.70251 0.245336 1.29677 0.682036C0.891029 1.11874 0.663086 1.71103 0.663086 2.32862V40.0098C0.663086 40.3156 0.719047 40.6184 0.827775 40.901C0.936503 41.1835 1.09587 41.4402 1.29677 41.6564C1.49767 41.8727 1.73618 42.0442 1.99867 42.1612C2.26116 42.2782 2.5425 42.3385 2.82662 42.3385H21.669V25.9323H16.5552V19.5815H21.669V14.8185C21.5631 13.7002 21.6857 12.5706 22.0284 11.5087C22.371 10.4469 22.9254 9.47862 23.6525 8.67179C24.3796 7.86496 25.262 7.23912 26.2376 6.83817C27.2133 6.43721 28.2587 6.27086 29.3004 6.35077C30.8312 6.34063 32.3613 6.42545 33.8831 6.6048V12.3205H30.7558C28.2776 12.3205 27.8056 13.5906 27.8056 15.4324V19.518H33.7061L32.939 25.8688H27.8056V42.3385H37.8365C38.1206 42.3385 38.4019 42.2782 38.6644 42.1612C38.9269 42.0442 39.1654 41.8727 39.3663 41.6564C39.5672 41.4402 39.7266 41.1835 39.8353 40.901C39.9441 40.6184 40 40.3156 40 40.0098V2.32862C40 2.02282 39.9441 1.72001 39.8353 1.43749C39.7266 1.15497 39.5672 0.898268 39.3663 0.682036C39.1654 0.465804 38.9269 0.294279 38.6644 0.177255C38.4019 0.0602316 38.1206 0 37.8365 0Z" fill="#BC65DE"/>
</svg>
