<svg width="36" height="37" viewBox="0 0 36 37" fill="none" xmlns="http://www.w3.org/2000/svg">
<path id="Vector" d="M27.6179 6.73631C27.191 6.73631 26.7737 6.8629 26.4188 7.10008C26.0638 7.33726 25.7871 7.67436 25.6238 8.06877C25.4604 8.46318 25.4177 8.89718 25.5009 9.31589C25.5842 9.73459 25.7898 10.1192 26.0917 10.4211C26.3935 10.7229 26.7781 10.9285 27.1968 11.0118C27.6156 11.0951 28.0496 11.0523 28.444 10.889C28.8384 10.7256 29.1755 10.4489 29.4127 10.094C29.6498 9.73902 29.7764 9.32169 29.7764 8.89479C29.7764 8.32232 29.549 7.77331 29.1442 7.36851C28.7394 6.96372 28.1904 6.73631 27.6179 6.73631ZM35.8921 11.0892C35.8571 9.59683 35.5776 8.12026 35.0647 6.71832C34.6073 5.51881 33.8955 4.43263 32.9782 3.53457C32.0875 2.61258 30.9988 1.90523 29.7944 1.46602C28.3962 0.937485 26.918 0.651575 25.4235 0.620619C23.5168 0.512695 22.9053 0.512695 18.0127 0.512695C13.1202 0.512695 12.5086 0.512695 10.6019 0.620619C9.10746 0.651575 7.62925 0.937485 6.23102 1.46602C5.02888 1.90968 3.94111 2.61642 3.04726 3.53457C2.12528 4.42526 1.41793 5.51396 0.978719 6.71832C0.450181 8.11655 0.164271 9.59477 0.133314 11.0892C0.0253905 12.9959 0.0253906 13.6075 0.0253906 18.5C0.0253906 23.3926 0.0253905 24.0041 0.133314 25.9108C0.164271 27.4053 0.450181 28.8835 0.978719 30.2817C1.41793 31.4861 2.12528 32.5748 3.04726 33.4655C3.94111 34.3836 5.02888 35.0904 6.23102 35.534C7.62925 36.0626 9.10746 36.3485 10.6019 36.3794C12.5086 36.4873 13.1202 36.4873 18.0127 36.4873C22.9053 36.4873 23.5168 36.4873 25.4235 36.3794C26.918 36.3485 28.3962 36.0626 29.7944 35.534C30.9988 35.0948 32.0875 34.3875 32.9782 33.4655C33.8996 32.5707 34.612 31.4836 35.0647 30.2817C35.5776 28.8798 35.8571 27.4032 35.8921 25.9108C35.8921 24.0041 36 23.3926 36 18.5C36 13.6075 36 12.9959 35.8921 11.0892ZM32.6544 25.6949C32.6413 26.8367 32.4345 27.968 32.0428 29.0406C31.7556 29.8234 31.2943 30.5307 30.6938 31.1091C30.1104 31.7036 29.4045 32.164 28.6252 32.4582C27.5527 32.8499 26.4214 33.0567 25.2796 33.0698C23.4809 33.1597 22.8153 33.1777 18.0847 33.1777C13.354 33.1777 12.6885 33.1777 10.8897 33.0698C9.70417 33.0919 8.52367 32.9094 7.40019 32.5301C6.65513 32.2209 5.98163 31.7617 5.42159 31.1811C4.82457 30.6032 4.36905 29.8953 4.09053 29.1125C3.65138 28.0246 3.40781 26.8676 3.37103 25.6949C3.37103 23.8962 3.26311 23.2307 3.26311 18.5C3.26311 13.7694 3.26311 13.1038 3.37103 11.3051C3.3791 10.1378 3.59219 8.98103 4.00059 7.8875C4.31725 7.12827 4.8033 6.4515 5.42159 5.90889C5.96807 5.29043 6.64344 4.79925 7.40019 4.46991C8.49661 4.07426 9.6522 3.86747 10.8178 3.85834C12.6165 3.85834 13.282 3.75041 18.0127 3.75041C22.7434 3.75041 23.4089 3.75041 25.2076 3.85834C26.3494 3.87143 27.4807 4.07823 28.5533 4.46991C29.3707 4.77327 30.1043 5.26647 30.6938 5.90889C31.2832 6.46142 31.7438 7.13695 32.0428 7.8875C32.4426 8.98281 32.6495 10.1391 32.6544 11.3051C32.7443 13.1038 32.7623 13.7694 32.7623 18.5C32.7623 23.2307 32.7443 23.8962 32.6544 25.6949ZM18.0127 9.27252C16.1885 9.27608 14.4062 9.82028 12.8911 10.8364C11.376 11.8525 10.1961 13.2948 9.50045 14.9813C8.8048 16.6677 8.62463 18.5224 8.98271 20.3112C9.34078 22.1 10.221 23.7425 11.5122 25.0312C12.8034 26.3199 14.4476 27.1969 16.2371 27.5515C18.0266 27.9061 19.881 27.7223 21.5661 27.0234C23.2511 26.3244 24.6912 25.1417 25.7043 23.6247C26.7175 22.1076 27.2582 20.3243 27.2582 18.5C27.2606 17.2861 27.0229 16.0836 26.5589 14.9618C26.0949 13.8401 25.4137 12.8211 24.5545 11.9635C23.6952 11.106 22.6749 10.4267 21.5523 9.96491C20.4296 9.50308 19.2267 9.26778 18.0127 9.27252ZM18.0127 24.4898C16.828 24.4898 15.67 24.1385 14.685 23.4803C13.7 22.8222 12.9322 21.8867 12.4789 20.7922C12.0255 19.6977 11.9069 18.4934 12.138 17.3315C12.3691 16.1696 12.9396 15.1023 13.7773 14.2646C14.615 13.4269 15.6823 12.8564 16.8442 12.6253C18.0061 12.3942 19.2104 12.5128 20.3049 12.9662C21.3994 13.4195 22.3349 14.1873 22.993 15.1723C23.6512 16.1573 24.0025 17.3154 24.0025 18.5C24.0025 19.2866 23.8476 20.0655 23.5465 20.7922C23.2455 21.5189 22.8043 22.1792 22.2481 22.7354C21.6919 23.2916 21.0316 23.7328 20.3049 24.0339C19.5782 24.3349 18.7993 24.4898 18.0127 24.4898Z" fill="#F2F2F2"/>
</svg>
