<svg width="45" height="45" viewBox="0 0 45 45" fill="none" xmlns="http://www.w3.org/2000/svg">
<path fill-rule="evenodd" clip-rule="evenodd" d="M0.572998 4.08979C0.572998 1.83106 2.40406 0 4.66278 0H40.6529C42.9116 0 44.7427 1.83106 44.7427 4.08978V40.0799C44.7427 42.3386 42.9116 44.1697 40.6529 44.1697H4.66278C2.40406 44.1697 0.572998 42.3386 0.572998 40.0799V4.08979ZM22.6938 17.8091C19.8836 17.8091 17.6061 20.0878 17.6061 22.8979C17.6061 25.708 19.8836 27.9866 22.6938 27.9866C25.504 27.9866 27.7827 25.708 27.7827 22.8979C27.7827 20.0878 25.504 17.8091 22.6938 17.8091ZM22.6938 30.7363C18.3644 30.7363 14.855 27.2271 14.855 22.8979C14.855 18.5687 18.3644 15.0594 22.6938 15.0594C27.0232 15.0594 30.5325 18.5687 30.5325 22.8979C30.5325 27.2271 27.0232 30.7363 22.6938 30.7363ZM30.8433 16.581C29.8309 16.581 29.0109 15.7598 29.0109 14.7487C29.0109 13.7376 29.8309 12.9177 30.8433 12.9177C31.8556 12.9177 32.6756 13.7376 32.6756 14.7487C32.6756 15.7598 31.8544 16.581 30.8433 16.581ZM13.691 34.7979C14.2286 35.0075 15.0375 35.2554 16.5259 35.3232C18.135 35.3972 18.6184 35.412 22.6938 35.412C26.7704 35.412 27.2537 35.3972 28.8629 35.3232C30.3513 35.2554 31.1602 35.0075 31.6978 34.7979C32.4105 34.5205 32.9198 34.19 33.4537 33.6561C33.9876 33.1222 34.3181 32.6142 34.5956 31.9015C34.8039 31.3639 35.053 30.555 35.1208 29.0668C35.1948 27.4564 35.2096 26.9731 35.2096 22.8979C35.2096 18.8214 35.1948 18.3393 35.1208 16.729C35.053 15.2407 34.8052 14.4318 34.5956 13.8942C34.3181 13.1815 33.9876 12.6723 33.4537 12.1384C32.9186 11.6045 32.4105 11.2728 31.6978 10.9966C31.1589 10.7882 30.3513 10.5391 28.8629 10.4713C27.2525 10.3986 26.7704 10.3825 22.6938 10.3825C18.6184 10.3825 18.135 10.3973 16.5259 10.4713C15.0375 10.5391 14.2286 10.787 13.691 10.9966C12.977 11.2728 12.469 11.6045 11.9351 12.1384C11.4011 12.6735 11.0707 13.1815 10.7932 13.8942C10.5848 14.4331 10.3358 15.2407 10.2679 16.729C10.1952 18.3393 10.1792 18.8214 10.1792 22.8979C10.1792 26.9743 10.194 27.4577 10.2679 29.0668C10.3358 30.555 10.5836 31.3639 10.7932 31.9015C11.0694 32.6142 11.4011 33.1222 11.9351 33.6561C12.4702 34.19 12.9783 34.5205 13.691 34.7979ZM12.6947 8.43432C13.6651 8.05701 14.7749 7.79931 16.4001 7.72533C18.029 7.65011 18.5481 7.63285 22.695 7.63285C26.8407 7.63285 27.361 7.65134 28.9887 7.72533C30.6127 7.79807 31.7225 8.05701 32.6941 8.43432C33.6966 8.82396 34.5487 9.34677 35.3971 10.1951C36.2454 11.0447 36.767 11.8955 37.1579 12.8992C37.5352 13.8696 37.7929 14.9793 37.8669 16.6044C37.9409 18.2321 37.9582 18.7524 37.9582 22.8979C37.9582 27.0434 37.9409 27.5625 37.8669 29.1913C37.7942 30.8165 37.5352 31.9262 37.1579 32.8966C36.767 33.9003 36.2454 34.7523 35.3971 35.6006C34.5475 36.449 33.6966 36.9705 32.6929 37.3614C31.7225 37.7387 30.6127 37.9964 28.9875 38.0704C27.3598 38.1456 26.8407 38.1629 22.6938 38.1629C18.5481 38.1629 18.029 38.1444 16.4001 38.0704C14.7749 37.9964 13.6663 37.7387 12.6947 37.3614C11.6897 36.9705 10.8389 36.449 9.99049 35.6006C9.14089 34.7523 8.6193 33.9003 8.22964 32.8966C7.85232 31.9262 7.5946 30.8165 7.52061 29.1913C7.4454 27.5637 7.42813 27.0434 7.42813 22.8979C7.42813 18.7524 7.4454 18.2321 7.52061 16.6044C7.5946 14.9793 7.85232 13.8696 8.22964 12.8992C8.6193 11.8942 9.14213 11.0434 9.99049 10.1951C10.8401 9.34677 11.6909 8.82396 12.6947 8.43432Z" fill="#BC65DE"/>
</svg>
