<svg width="41" height="45" viewBox="0 0 41 45" fill="none" xmlns="http://www.w3.org/2000/svg">
<path d="M37.6465 0.000307757H3.00599C2.6166 -0.00551286 2.22996 0.0712821 1.86814 0.226307C1.50633 0.381332 1.17643 0.61155 0.897294 0.903814C0.618154 1.19608 0.39524 1.54466 0.241281 1.92966C0.0873218 2.31466 0.00533389 2.72853 0 3.14763V40.8715C0.00533389 41.2906 0.0873218 41.7044 0.241281 42.0894C0.39524 42.4744 0.618154 42.823 0.897294 43.1153C1.17643 43.4076 1.50633 43.6378 1.86814 43.7928C2.22996 43.9478 2.6166 44.0246 3.00599 44.0188H37.6465C38.0359 44.0246 38.4225 43.9478 38.7843 43.7928C39.1461 43.6378 39.476 43.4076 39.7552 43.1153C40.0343 42.823 40.2572 42.4744 40.4112 42.0894C40.5651 41.7044 40.6471 41.2906 40.6525 40.8715V3.14763C40.6471 2.72853 40.5651 2.31466 40.4112 1.92966C40.2572 1.54466 40.0343 1.19608 39.7552 0.903814C39.476 0.61155 39.1461 0.381332 38.7843 0.226307C38.4225 0.0712821 38.0359 -0.00551286 37.6465 0.000307757ZM12.3307 36.8438H6.19602V17.0355H12.3307V36.8438ZM9.26336 14.2623C8.41731 14.2623 7.60592 13.9006 7.00767 13.2567C6.40942 12.6128 6.07333 11.7395 6.07333 10.8289C6.07333 9.91825 6.40942 9.04494 7.00767 8.40105C7.60592 7.75715 8.41731 7.39541 9.26336 7.39541C9.71262 7.34058 10.1676 7.38849 10.5984 7.53602C11.0293 7.68354 11.4263 7.92735 11.7636 8.25149C12.1008 8.57562 12.3706 8.97277 12.5554 9.41692C12.7401 9.86108 12.8356 10.3422 12.8356 10.8289C12.8356 11.3155 12.7401 11.7966 12.5554 12.2408C12.3706 12.6849 12.1008 13.0821 11.7636 13.4062C11.4263 13.7304 11.0293 13.9742 10.5984 14.1217C10.1676 14.2692 9.71262 14.3171 9.26336 14.2623ZM34.4564 36.8438H28.3218V26.2133C28.3218 23.5502 27.4425 21.8115 25.2135 21.8115C24.5237 21.8169 23.852 22.0498 23.2889 22.4787C22.7259 22.9077 22.2985 23.5121 22.0644 24.2105C21.9044 24.7278 21.835 25.2726 21.8599 25.8172V36.8218H15.7252C15.7252 36.8218 15.7252 18.8182 15.7252 17.0135H21.8599V19.8086C22.4172 18.7678 23.2277 17.9104 24.2043 17.3286C25.1808 16.7469 26.2862 16.4629 27.4016 16.5072C31.4913 16.5072 34.4564 19.3464 34.4564 25.443V36.8438Z" fill="#BC65DE"/>
</svg>
