<svg width="28" height="27" viewBox="0 0 28 27" fill="none" xmlns="http://www.w3.org/2000/svg">
<g id="linkedin">
<path d="M0.599532 26.9907H6.14702V9.03153H0.599532V26.9907Z" fill="#F2F2F2"/>
<path d="M0.0952148 3.29807C0.0952148 5.0687 1.52411 6.50207 3.37328 6.50207C5.13839 6.50207 6.56729 5.0687 6.56729 3.29807C6.56729 1.52745 5.13839 0.00976562 3.37328 0.00976562C1.52411 0.00976562 0.0952148 1.52745 0.0952148 3.29807Z" fill="#F2F2F2"/>
<path d="M21.4447 26.9907H27.0762V17.1258C27.0762 12.3198 25.9835 8.52564 20.352 8.52564C17.6623 8.52564 15.8131 10.0433 15.0566 11.4767H14.9726V9.03153H9.67725V26.9907H15.2247V18.1376C15.2247 15.7768 15.645 13.5003 18.5869 13.5003C21.4447 13.5003 21.4447 16.1984 21.4447 18.2219V26.9907Z" fill="#F2F2F2"/>
</g>
</svg>
