<svg width="160" height="46" viewBox="0 0 160 46" fill="none" xmlns="http://www.w3.org/2000/svg">
<g clip-path="url(#clip0_218_163)">
<path d="M33.4033 37.8221L19.9942 23.0722L28.9076 40.9013L19.9747 23.0819L23.7463 42.6543L19.9528 23.0868L18.3071 42.9517L19.9333 23.0844L12.9874 41.7693L19.9138 23.0771L8.18453 39.1947L19.8967 23.0649L4.25202 35.4183L19.8845 23.0478L1.48731 30.7251L19.8748 23.0283L0.090332 25.4566L19.8723 23.0063L0.16591 20.0076L19.8748 22.9868L1.70917 14.7805L19.8845 22.9673L4.60553 10.1653L19.8967 22.9503L8.64044 6.50102L19.9162 22.9405L13.5116 4.06301L19.9357 22.9332L18.863 3.02686L19.9552 22.9308L24.2949 3.47545L19.9772 22.9356L29.4025 5.37222L19.9942 22.9454L33.8105 8.57577L20.0113 22.96L37.1895 12.852L20.0211 22.9795L39.2911 17.8792L20.0259 22.999L39.9591 23.2867L20.0259 23.021L39.1399 28.6747L20.0211 23.0405L36.8994 33.6434L20.0089 23.0575L33.4033 37.8221Z" fill="#FDFAF0" stroke="#FDFAF0" stroke-width="1.46281" stroke-miterlimit="10"/>
</g>
<path d="M60.5653 35.7009C58.476 35.7009 56.5876 35.2188 54.9001 34.2545C53.2394 33.2902 51.9136 31.9777 50.9225 30.317C49.9582 28.6295 49.4627 26.7411 49.4359 24.6518V5.68762C49.4359 5.20547 49.5698 4.83048 49.8377 4.56262C50.1323 4.26798 50.5207 4.12066 51.0028 4.12066C51.4582 4.12066 51.8198 4.26798 52.0877 4.56262C52.3823 4.83048 52.5296 5.20547 52.5296 5.68762V17.5001C53.4135 16.2411 54.5787 15.2367 56.0251 14.4867C57.4984 13.7099 59.1323 13.3215 60.9269 13.3215C62.9894 13.3215 64.8376 13.817 66.4715 14.8081C68.1055 15.7724 69.3912 17.0983 70.3287 18.7858C71.2929 20.4733 71.7751 22.3751 71.7751 24.4911C71.7751 26.634 71.2795 28.5491 70.2885 30.2366C69.3242 31.9241 67.9983 33.2634 66.3108 34.2545C64.6233 35.2188 62.7082 35.7009 60.5653 35.7009ZM60.5653 32.8884C62.1189 32.8884 63.5117 32.5268 64.7439 31.8036C65.976 31.0536 66.9403 30.0491 67.6367 28.7902C68.3599 27.5313 68.7215 26.0983 68.7215 24.4911C68.7215 22.9108 68.3599 21.4911 67.6367 20.2322C66.9403 18.9465 65.976 17.942 64.7439 17.2188C63.5117 16.4956 62.1189 16.134 60.5653 16.134C59.0385 16.134 57.6591 16.4956 56.4269 17.2188C55.1948 17.942 54.2305 18.9465 53.5341 20.2322C52.8377 21.4911 52.4894 22.9108 52.4894 24.4911C52.4894 26.0983 52.8377 27.5313 53.5341 28.7902C54.2305 30.0491 55.1948 31.0536 56.4269 31.8036C57.6591 32.5268 59.0385 32.8884 60.5653 32.8884ZM80.0531 35.5C79.5709 35.5 79.1826 35.3661 78.8879 35.0982C78.6201 34.8036 78.4861 34.4152 78.4861 33.933V15.0894C78.4861 14.6072 78.6201 14.2322 78.8879 13.9644C79.1826 13.6697 79.5709 13.5224 80.0531 13.5224C80.5084 13.5224 80.87 13.6697 81.1379 13.9644C81.4325 14.2322 81.5799 14.6072 81.5799 15.0894V33.933C81.5799 34.4152 81.4325 34.8036 81.1379 35.0982C80.87 35.3661 80.5084 35.5 80.0531 35.5ZM80.0129 9.34385C79.4236 9.34385 78.9147 9.12957 78.4861 8.701C78.0576 8.27243 77.8433 7.75011 77.8433 7.13404C77.8433 6.4644 78.0576 5.94208 78.4861 5.56708C78.9415 5.1653 79.4638 4.9644 80.0531 4.9644C80.6156 4.9644 81.1111 5.1653 81.5397 5.56708C81.995 5.94208 82.2227 6.4644 82.2227 7.13404C82.2227 7.75011 82.0084 8.27243 81.5799 8.701C81.1513 9.12957 80.629 9.34385 80.0129 9.34385ZM89.6984 22.9242C89.0556 22.9242 88.4931 22.7099 88.0109 22.2813C87.5556 21.8259 87.3279 21.2634 87.3279 20.5938C87.3279 19.9242 87.5556 19.3617 88.0109 18.9063C88.4663 18.451 89.0288 18.2233 89.6984 18.2233C90.3413 18.2233 90.877 18.4644 91.3056 18.9465C91.7609 19.4018 91.9886 19.951 91.9886 20.5938C91.9886 21.2367 91.7609 21.7858 91.3056 22.2411C90.877 22.6965 90.3413 22.9242 89.6984 22.9242ZM102.046 35.5C100.974 35.5 100.01 35.2054 99.1529 34.6161C98.3225 34.0268 97.6663 33.2098 97.1842 32.1652C96.7288 31.1206 96.5011 29.9152 96.5011 28.5491V5.64744C96.5011 5.19208 96.6351 4.83048 96.9029 4.56262C97.1976 4.26798 97.5726 4.12066 98.0279 4.12066C98.4833 4.12066 98.8449 4.26798 99.1127 4.56262C99.4074 4.83048 99.5547 5.19208 99.5547 5.64744V28.5491C99.5547 29.7009 99.7824 30.6384 100.238 31.3616C100.72 32.0848 101.323 32.4464 102.046 32.4464H103.05C103.452 32.4464 103.773 32.5938 104.014 32.8884C104.256 33.1563 104.376 33.5179 104.376 33.9732C104.376 34.4286 104.202 34.8036 103.854 35.0982C103.532 35.3661 103.104 35.5 102.568 35.5H102.046ZM117.111 35.7009C115.048 35.7009 113.2 35.2188 111.566 34.2545C109.932 33.2634 108.633 31.9241 107.669 30.2366C106.731 28.5491 106.263 26.6474 106.263 24.5313C106.263 22.3884 106.745 20.4733 107.709 18.7858C108.7 17.0983 110.039 15.7724 111.727 14.8081C113.414 13.817 115.316 13.3215 117.432 13.3215C119.548 13.3215 121.437 13.817 123.097 14.8081C124.785 15.7724 126.111 17.0983 127.075 18.7858C128.066 20.4733 128.575 22.3884 128.602 24.5313L127.356 25.4956C127.356 27.4241 126.901 29.1652 125.99 30.7188C125.106 32.2455 123.888 33.4643 122.334 34.375C120.807 35.2589 119.066 35.7009 117.111 35.7009ZM117.432 32.8884C118.986 32.8884 120.365 32.5268 121.571 31.8036C122.803 31.0804 123.767 30.0893 124.463 28.8304C125.187 27.5447 125.548 26.1116 125.548 24.5313C125.548 22.9242 125.187 21.4911 124.463 20.2322C123.767 18.9733 122.803 17.9822 121.571 17.259C120.365 16.509 118.986 16.134 117.432 16.134C115.905 16.134 114.526 16.509 113.294 17.259C112.062 17.9822 111.084 18.9733 110.361 20.2322C109.638 21.4911 109.276 22.9242 109.276 24.5313C109.276 26.1116 109.638 27.5447 110.361 28.8304C111.084 30.0893 112.062 31.0804 113.294 31.8036C114.526 32.5268 115.905 32.8884 117.432 32.8884ZM127.035 35.5C126.579 35.5 126.204 35.3661 125.91 35.0982C125.615 34.8036 125.468 34.4286 125.468 33.9732V27.1027L126.231 23.9286L128.602 24.5313V33.9732C128.602 34.4286 128.454 34.8036 128.16 35.0982C127.865 35.3661 127.49 35.5 127.035 35.5ZM145.748 35.7009C143.659 35.7009 141.771 35.2188 140.083 34.2545C138.422 33.2902 137.096 31.9777 136.105 30.317C135.141 28.6295 134.646 26.7411 134.619 24.6518V5.68762C134.619 5.20547 134.753 4.83048 135.021 4.56262C135.315 4.26798 135.704 4.12066 136.186 4.12066C136.641 4.12066 137.003 4.26798 137.271 4.56262C137.565 4.83048 137.713 5.20547 137.713 5.68762V17.5001C138.596 16.2411 139.762 15.2367 141.208 14.4867C142.681 13.7099 144.315 13.3215 146.11 13.3215C148.172 13.3215 150.021 13.817 151.654 14.8081C153.288 15.7724 154.574 17.0983 155.512 18.7858C156.476 20.4733 156.958 22.3751 156.958 24.4911C156.958 26.634 156.462 28.5491 155.471 30.2366C154.507 31.9241 153.181 33.2634 151.494 34.2545C149.806 35.2188 147.891 35.7009 145.748 35.7009ZM145.748 32.8884C147.302 32.8884 148.695 32.5268 149.927 31.8036C151.159 31.0536 152.123 30.0491 152.82 28.7902C153.543 27.5313 153.904 26.0983 153.904 24.4911C153.904 22.9108 153.543 21.4911 152.82 20.2322C152.123 18.9465 151.159 17.942 149.927 17.2188C148.695 16.4956 147.302 16.134 145.748 16.134C144.221 16.134 142.842 16.4956 141.61 17.2188C140.378 17.942 139.413 18.9465 138.717 20.2322C138.021 21.4911 137.672 22.9108 137.672 24.4911C137.672 26.0983 138.021 27.5313 138.717 28.7902C139.413 30.0491 140.378 31.0536 141.61 31.8036C142.842 32.5268 144.221 32.8884 145.748 32.8884Z" fill="#FDFAF0"/>
<defs>
<clipPath id="clip0_218_163">
<rect width="39.9687" height="40.0248" fill="white" transform="translate(0 2.98779)"/>
</clipPath>
</defs>
</svg>
