<svg width="24" height="25" viewBox="0 0 24 25" fill="none" xmlns="http://www.w3.org/2000/svg">
<g id="menu">
<path id="Vector" d="M4 18.577H20C20.55 18.577 21 18.127 21 17.577C21 17.027 20.55 16.577 20 16.577H4C3.45 16.577 3 17.027 3 17.577C3 18.127 3.45 18.577 4 18.577ZM4 13.577H20C20.55 13.577 21 13.127 21 12.577C21 12.027 20.55 11.577 20 11.577H4C3.45 11.577 3 12.027 3 12.577C3 13.127 3.45 13.577 4 13.577ZM3 7.57697C3 8.12697 3.45 8.57697 4 8.57697H20C20.55 8.57697 21 8.12697 21 7.57697C21 7.02697 20.55 6.57697 20 6.57697H4C3.45 6.57697 3 7.02697 3 7.57697Z" fill="white"/>
</g>
</svg>
