<svg width="25" height="25" viewBox="0 0 25 25" fill="none" xmlns="http://www.w3.org/2000/svg">
<path d="M23.5 8.5C23.5 9.6 22.6 10.5 21.5 10.5C21.32 10.5 21.15 10.48 20.99 10.43L17.43 13.98C17.48 14.14 17.5 14.32 17.5 14.5C17.5 15.6 16.6 16.5 15.5 16.5C14.4 16.5 13.5 15.6 13.5 14.5C13.5 14.32 13.52 14.14 13.57 13.98L11.02 11.43C10.86 11.48 10.68 11.5 10.5 11.5C10.32 11.5 10.14 11.48 9.98 11.43L5.43 15.99C5.48 16.15 5.5 16.32 5.5 16.5C5.5 17.6 4.6 18.5 3.5 18.5C2.4 18.5 1.5 17.6 1.5 16.5C1.5 15.4 2.4 14.5 3.5 14.5C3.68 14.5 3.85 14.52 4.01 14.57L8.57 10.02C8.52 9.86 8.5 9.68 8.5 9.5C8.5 8.4 9.4 7.5 10.5 7.5C11.6 7.5 12.5 8.4 12.5 9.5C12.5 9.68 12.48 9.86 12.43 10.02L14.98 12.57C15.14 12.52 15.32 12.5 15.5 12.5C15.68 12.5 15.86 12.52 16.02 12.57L19.57 9.01C19.52 8.85 19.5 8.68 19.5 8.5C19.5 7.4 20.4 6.5 21.5 6.5C22.6 6.5 23.5 7.4 23.5 8.5ZM23.5 8.5C23.5 9.6 22.6 10.5 21.5 10.5C21.32 10.5 21.15 10.48 20.99 10.43L17.43 13.98C17.48 14.14 17.5 14.32 17.5 14.5C17.5 15.6 16.6 16.5 15.5 16.5C14.4 16.5 13.5 15.6 13.5 14.5C13.5 14.32 13.52 14.14 13.57 13.98L11.02 11.43C10.86 11.48 10.68 11.5 10.5 11.5C10.32 11.5 10.14 11.48 9.98 11.43L5.43 15.99C5.48 16.15 5.5 16.32 5.5 16.5C5.5 17.6 4.6 18.5 3.5 18.5C2.4 18.5 1.5 17.6 1.5 16.5C1.5 15.4 2.4 14.5 3.5 14.5C3.68 14.5 3.85 14.52 4.01 14.57L8.57 10.02C8.52 9.86 8.5 9.68 8.5 9.5C8.5 8.4 9.4 7.5 10.5 7.5C11.6 7.5 12.5 8.4 12.5 9.5C12.5 9.68 12.48 9.86 12.43 10.02L14.98 12.57C15.14 12.52 15.32 12.5 15.5 12.5C15.68 12.5 15.86 12.52 16.02 12.57L19.57 9.01C19.52 8.85 19.5 8.68 19.5 8.5C19.5 7.4 20.4 6.5 21.5 6.5C22.6 6.5 23.5 7.4 23.5 8.5Z" fill="#FDFAF0"/>
</svg>
