<svg width="25" height="25" viewBox="0 0 25 25" fill="none" xmlns="http://www.w3.org/2000/svg">
<g id="quickreply">
<g id="Vector">
<path d="M22.4072 4.40503C22.4072 3.30503 21.5072 2.40503 20.4072 2.40503H4.40723C3.30723 2.40503 2.41723 3.30503 2.41723 4.40503L2.40723 22.405L6.40723 18.405H15.4072V11.405C15.4072 10.855 15.8572 10.405 16.4072 10.405H22.4072V4.40503Z" fill="#FDFAF0"/>
<path d="M22.0972 16.405H20.7072L22.1072 13.105C22.2472 12.775 22.0072 12.405 21.6472 12.405H17.9072C17.6272 12.405 17.4072 12.625 17.4072 12.905V17.905C17.4072 18.185 17.6272 18.405 17.9072 18.405H19.4072V22.345C19.4072 22.605 19.7672 22.695 19.8772 22.455L22.5372 17.125C22.7072 16.795 22.4672 16.405 22.0972 16.405Z" fill="#FDFAF0"/>
</g>
</g>
</svg>
