<svg width="25" height="24" viewBox="0 0 25 24" fill="none" xmlns="http://www.w3.org/2000/svg">
<g id="monetization_on">
<path id="Vector" d="M12.5 2C6.98 2 2.5 6.48 2.5 12C2.5 17.52 6.98 22 12.5 22C18.02 22 22.5 17.52 22.5 12C22.5 6.48 18.02 2 12.5 2ZM13.91 18.09V18.67C13.91 19.4 13.31 20 12.58 20H12.57C11.84 20 11.24 19.4 11.24 18.67V18.07C9.91 17.79 8.73 17.06 8.23 15.83C8 15.28 8.43 14.67 9.03 14.67H9.27C9.64 14.67 9.94 14.92 10.08 15.27C10.37 16.02 11.13 16.54 12.59 16.54C14.55 16.54 14.99 15.56 14.99 14.95C14.99 14.12 14.55 13.34 12.32 12.81C9.84 12.21 8.14 11.19 8.14 9.14C8.14 7.42 9.53 6.3 11.25 5.93V5.33C11.25 4.6 11.85 4 12.58 4H12.59C13.32 4 13.92 4.6 13.92 5.33V5.95C15.3 6.29 16.17 7.15 16.55 8.21C16.75 8.76 16.33 9.34 15.74 9.34H15.48C15.11 9.34 14.81 9.08 14.71 8.72C14.48 7.96 13.85 7.47 12.59 7.47C11.09 7.47 10.19 8.15 10.19 9.11C10.19 9.95 10.84 10.5 12.86 11.02C14.88 11.54 17.04 12.41 17.04 14.93C17.02 16.76 15.65 17.76 13.91 18.09Z" fill="#FDFAF0"/>
</g>
</svg>
