<svg width="25" height="24" viewBox="0 0 25 24" fill="none" xmlns="http://www.w3.org/2000/svg">
<path d="M21.908 11.4124L13.078 2.58244C12.708 2.21244 12.198 2.00244 11.668 2.00244H4.49805C3.39805 2.00244 2.49805 2.90244 2.49805 4.00244V11.1724C2.49805 11.7024 2.70805 12.2124 3.08805 12.5824L11.918 21.4124C12.698 22.1924 13.968 22.1924 14.748 21.4124L21.918 14.2424C22.698 13.4624 22.698 12.2024 21.908 11.4124ZM6.99805 8.00244C6.16805 8.00244 5.49805 7.33244 5.49805 6.50244C5.49805 5.67244 6.16805 5.00244 6.99805 5.00244C7.82805 5.00244 8.49805 5.67244 8.49805 6.50244C8.49805 7.33244 7.82805 8.00244 6.99805 8.00244Z" fill="#FDFAF0"/>
</svg>
