<svg width="25" height="24" viewBox="0 0 25 24" fill="none" xmlns="http://www.w3.org/2000/svg">
<g id="timeline">
<path id="Vector" d="M23.5 8C23.5 9.1 22.6 10 21.5 10C21.32 10 21.15 9.98 20.99 9.93L17.43 13.48C17.48 13.64 17.5 13.82 17.5 14C17.5 15.1 16.6 16 15.5 16C14.4 16 13.5 15.1 13.5 14C13.5 13.82 13.52 13.64 13.57 13.48L11.02 10.93C10.86 10.98 10.68 11 10.5 11C10.32 11 10.14 10.98 9.98 10.93L5.43 15.49C5.48 15.65 5.5 15.82 5.5 16C5.5 17.1 4.6 18 3.5 18C2.4 18 1.5 17.1 1.5 16C1.5 14.9 2.4 14 3.5 14C3.68 14 3.85 14.02 4.01 14.07L8.57 9.52C8.52 9.36 8.5 9.18 8.5 9C8.5 7.9 9.4 7 10.5 7C11.6 7 12.5 7.9 12.5 9C12.5 9.18 12.48 9.36 12.43 9.52L14.98 12.07C15.14 12.02 15.32 12 15.5 12C15.68 12 15.86 12.02 16.02 12.07L19.57 8.51C19.52 8.35 19.5 8.18 19.5 8C19.5 6.9 20.4 6 21.5 6C22.6 6 23.5 6.9 23.5 8ZM23.5 8C23.5 9.1 22.6 10 21.5 10C21.32 10 21.15 9.98 20.99 9.93L17.43 13.48C17.48 13.64 17.5 13.82 17.5 14C17.5 15.1 16.6 16 15.5 16C14.4 16 13.5 15.1 13.5 14C13.5 13.82 13.52 13.64 13.57 13.48L11.02 10.93C10.86 10.98 10.68 11 10.5 11C10.32 11 10.14 10.98 9.98 10.93L5.43 15.49C5.48 15.65 5.5 15.82 5.5 16C5.5 17.1 4.6 18 3.5 18C2.4 18 1.5 17.1 1.5 16C1.5 14.9 2.4 14 3.5 14C3.68 14 3.85 14.02 4.01 14.07L8.57 9.52C8.52 9.36 8.5 9.18 8.5 9C8.5 7.9 9.4 7 10.5 7C11.6 7 12.5 7.9 12.5 9C12.5 9.18 12.48 9.36 12.43 9.52L14.98 12.07C15.14 12.02 15.32 12 15.5 12C15.68 12 15.86 12.02 16.02 12.07L19.57 8.51C19.52 8.35 19.5 8.18 19.5 8C19.5 6.9 20.4 6 21.5 6C22.6 6 23.5 6.9 23.5 8Z" fill="#FDFAF0"/>
</g>
</svg>
