<svg width="33" height="30" viewBox="0 0 33 30" fill="none" xmlns="http://www.w3.org/2000/svg">
<path d="M13.523 13.6729C17.2049 13.6729 20.1897 10.6882 20.1897 7.00627C20.1897 3.32437 17.2049 0.3396 13.523 0.3396C9.84113 0.3396 6.85636 3.32437 6.85636 7.00627C6.85636 10.6882 9.84113 13.6729 13.523 13.6729Z" fill="white"/>
<path d="M14.1064 17.0229C9.55636 16.8563 0.189697 19.1229 0.189697 23.6729V25.3396C0.189697 26.2563 0.939697 27.0063 1.85636 27.0063H16.0897C11.973 22.4063 14.0397 17.1896 14.1064 17.0229Z" fill="white"/>
<path d="M29.2397 23.7063C30.023 22.3729 30.4064 20.7563 30.0397 19.0063C29.473 16.2729 27.173 14.0896 24.4064 13.7396C20.023 13.1729 16.323 16.8563 16.9064 21.2396C17.273 24.0063 19.4397 26.3063 22.173 26.8729C23.923 27.2396 25.5397 26.8563 26.873 26.0729L29.973 29.1729C30.623 29.8229 31.673 29.8229 32.323 29.1729C32.973 28.5229 32.973 27.4729 32.323 26.8229L29.2397 23.7063ZM23.523 23.6729C21.6897 23.6729 20.1897 22.1729 20.1897 20.3396C20.1897 18.5063 21.6897 17.0063 23.523 17.0063C25.3564 17.0063 26.8564 18.5063 26.8564 20.3396C26.8564 22.1729 25.3564 23.6729 23.523 23.6729Z" fill="white"/>
</svg>
