<svg width="84" height="85" viewBox="0 0 84 85" fill="none" xmlns="http://www.w3.org/2000/svg">
<path d="M69.4273 73.3067L41.5571 42.6494L60.0832 79.7067L41.5165 42.6697L49.3557 83.3501L41.4709 42.6798L38.0505 83.9683L41.4304 42.6748L26.9936 81.5107L41.3899 42.6596L17.011 76.1596L41.3544 42.6342L8.83741 68.3103L41.329 42.5988L3.09107 58.5557L41.3088 42.5582L0.1875 47.6053L41.3037 42.5126L0.344587 36.2798L41.3088 42.4721L3.5522 25.4155L41.329 42.4315L9.57217 15.8231L41.3544 42.3961L17.9586 8.20689L41.3949 42.3758L28.0831 3.13957L41.4355 42.3606L39.2058 0.985962L41.476 42.3555L50.4958 1.91835L41.5216 42.3657L61.1118 5.86072L41.5571 42.3859L70.2736 12.5192L41.5925 42.4163L77.2969 21.4072L41.6128 42.4569L81.6649 31.8561L41.6229 42.4974L83.0533 43.0954L41.6229 42.543L81.3507 54.2941L41.6128 42.5836L76.6939 64.6213L41.5875 42.619L69.4273 73.3067Z" fill="#FDFAF0" stroke="#FDFAF0" stroke-width="3.04039" stroke-miterlimit="10"/>
</svg>
